<svg id="Layer_1" data-name="Layer 1" xmlns="http://www.w3.org/2000/svg" viewBox="0 0 122.88 90.57"><defs><style>.cls-1{fill-rule:evenodd;}</style></defs><title>car-service</title><path class="cls-1" d="M0,56.71C.51,53.84,2,52.07,4.8,52a12.06,12.06,0,0,1,1.62-7.6,11.24,11.24,0,0,1,2.34-2.6c3.3-2.68,7-3,11.1-3.71s7.89-1.32,11.84-1.78c4.77-.57,9.54-.94,14.31-1.08,2.21-.06,1.68.06,3.43-1.29l.06,0L28.42,13.54c-2.71-2.82-4.86-3.07-8.46-3l-1.93,0A6,6,0,0,1,14.13,7l-.54-1.84c-.38-1.28-.54-1.81.38-3C15.41.23,18.18.14,20.38,0c4.45-.23,8,.93,11.42,5.29L54.91,29.89A162.56,162.56,0,0,1,77.16,17.11a24.7,24.7,0,0,1,6.6-2.06,22.52,22.52,0,0,0,.5,3.5c-3.17.52-4.87,1.23-9.18,3.52-4.81,2.55-9.2,5.36-13.87,8.41-1,.64-2,1.3-2.92,2v5.81h28L82.63,52.33l-.28.92-.42.35c-.69.62-1.48,1.25-2.44,2a6.42,6.42,0,0,0-.6.42A25.91,25.91,0,0,0,68.7,71.34l-.09.43H50.15c3.87-17.8-7.64-25-18.21-24C18.34,49.09,14.76,60,17.09,72H5.31C2,72.13.39,69.45,0,64.92V56.71Zm104.25,28a16.36,16.36,0,0,1-11.43,5.88C104.08,77.66,86.25,66.46,80.35,84c-4.89-7.36-2.44-15.31,4.27-20.32,3.16-2.36,4.81-3.73,5.83-5.34a11.35,11.35,0,0,0,1.28-3L97.52,33c2.31-8.27-9.07-16.21-1.11-26.56A16.36,16.36,0,0,1,107.84.55c-11.27,12.91,6.57,24.11,12.47,6.58,4.89,7.36,2.44,15.31-4.27,20.32-3,2.19-6,3.23-7.47,8.84l-5.43,21.56a11.6,11.6,0,0,0-.44,3.72,13.08,13.08,0,0,0,.85,3.47c2.48,7.08,6,12.7.7,19.65ZM35.32,59v4.87h4.87A6.66,6.66,0,0,0,35.32,59Zm4.87,8H35.32v4.87A6.66,6.66,0,0,0,40.19,67Zm-8,4.87V67H27.28a6.66,6.66,0,0,0,4.87,4.87Zm-4.87-8h4.87V59a6.67,6.67,0,0,0-4.87,4.87Zm6.46-11.93A13.52,13.52,0,1,1,20.22,65.45,13.51,13.51,0,0,1,33.74,51.94Z"/></svg>